<svg width="396" height="76" viewBox="0 0 396 76" fill="none" xmlns="http://www.w3.org/2000/svg">
<g clip-path="url(#clip0_43_5)">
<g clip-path="url(#clip1_43_5)">
<g clip-path="url(#clip2_43_5)">
<g clip-path="url(#clip3_43_5)">
<g clip-path="url(#clip4_43_5)">
<g clip-path="url(#clip5_43_5)">
<path d="M56.5381 34.4644C60.7929 36.2271 64.1239 38.7071 66.5309 41.9043C68.9258 45.0894 70.1232 48.627 70.1232 52.5172C70.1232 56.3466 68.3909 59.945 64.9262 63.3124C61.4615 66.692 57.1641 69.3847 52.034 71.3905C46.8917 73.3964 41.9803 74.3993 37.3 74.3993C34.2608 74.3993 31.2824 74.2474 28.3648 73.9435C23.5021 73.6395 19.7335 73.4876 17.059 73.4876H1.83267V67.0141L10.4032 60.2671V11.5793L0.00915527 9.11757L3.65618 1.82351H16.9678C22.4992 1.82351 27.9393 1.64116 33.2883 1.27646C37.4216 1.03333 40.4608 0.911757 42.4058 0.911757C47.2078 0.911757 51.4322 1.70194 55.0793 3.28232C58.7263 4.8627 61.5345 7.00229 63.5039 9.70109C65.4854 12.412 66.4762 15.4391 66.4762 18.7822C66.4762 21.6998 65.5827 24.508 63.7956 27.2068C61.9964 29.9178 59.5773 32.3674 56.5381 34.5556V34.4644ZM46.0529 23.888C46.0529 19.7547 45.1593 16.4542 43.3723 13.9863C41.5731 11.5307 38.9108 10.3028 35.3853 10.3028C33.501 10.3028 31.7383 10.5764 30.0971 11.1234V33.8262H38.5765C43.5607 33.8262 46.0529 30.5135 46.0529 23.888ZM39.8529 64.0053C42.8921 64.0053 45.2809 63.2151 47.0193 61.6347C48.7456 60.0544 49.6087 57.8358 49.6087 54.9789C49.6087 51.1495 48.6058 48.0009 46.5999 45.5331C44.5941 43.0775 41.646 41.7281 37.7559 41.4849H36.0235H30.0971V62.3642C33.0147 63.3975 36.2971 63.9141 39.9441 63.9141L39.8529 64.0053ZM118.993 0C126.287 0 132.731 1.54998 138.323 4.64996C143.915 7.74993 148.23 12.0352 151.27 17.5057C154.309 22.9763 155.828 29.1762 155.828 36.1056C155.828 43.2173 153.531 49.7819 148.935 55.7995C144.352 61.8171 138.657 66.5704 131.849 70.0594C125.041 73.5605 118.598 75.3111 112.52 75.3111C105.226 75.3111 98.7949 73.7733 93.2271 70.6976C87.6715 67.6341 83.3559 63.3671 80.2802 57.8965C77.2167 52.426 75.685 46.2261 75.685 39.2967C75.685 32.185 77.9765 25.6021 82.5596 19.5481C87.1548 13.5062 92.8564 8.73463 99.6641 5.23348C106.472 1.74449 112.915 0 118.993 0ZM113.705 12.2175C110.666 12.2175 107.882 13.2022 105.354 15.1716C102.837 17.1532 100.831 19.8763 99.3359 23.341C97.8528 26.8056 97.1112 30.6654 97.1112 34.9203C97.1112 40.0869 97.871 44.7976 99.3906 49.0525C100.91 53.3074 103.232 56.7113 106.356 59.2642C109.493 61.8171 113.31 63.0936 117.808 63.0936C120.847 63.0936 123.625 62.1028 126.142 60.1212C128.67 58.1518 130.676 55.4348 132.159 51.9701C133.654 48.5054 134.402 44.6457 134.402 40.3908C134.402 35.1634 133.642 30.4223 132.123 26.1674C130.603 21.9125 128.293 18.5208 125.193 15.9922C122.093 13.4758 118.264 12.2175 113.705 12.2175ZM208.254 0C215.548 0 221.991 1.54998 227.584 4.64996C233.176 7.74993 237.491 12.0352 240.531 17.5057C243.57 22.9763 245.089 29.1762 245.089 36.1056C245.089 43.2173 242.792 49.7819 238.196 55.7995C233.613 61.8171 227.918 66.5704 221.11 70.0594C214.302 73.5605 207.859 75.3111 201.781 75.3111C194.487 75.3111 188.056 73.7733 182.488 70.6976C176.932 67.6341 172.617 63.3671 169.541 57.8965C166.478 52.426 164.946 46.2261 164.946 39.2967C164.946 32.185 167.237 25.6021 171.821 19.5481C176.416 13.5062 182.117 8.73463 188.925 5.23348C195.733 1.74449 202.176 0 208.254 0ZM202.966 12.2175C199.927 12.2175 197.143 13.2022 194.614 15.1716C192.098 17.1532 190.092 19.8763 188.597 23.341C187.114 26.8056 186.372 30.6654 186.372 34.9203C186.372 40.0869 187.132 44.7976 188.652 49.0525C190.171 53.3074 192.493 56.7113 195.617 59.2642C198.754 61.8171 202.571 63.0936 207.069 63.0936C210.108 63.0936 212.886 62.1028 215.403 60.1212C217.931 58.1518 219.937 55.4348 221.42 51.9701C222.915 48.5054 223.663 44.6457 223.663 40.3908C223.663 35.1634 222.903 30.4223 221.384 26.1674C219.864 21.9125 217.554 18.5208 214.454 15.9922C211.354 13.4758 207.525 12.2175 202.966 12.2175ZM281.45 63.3671L291.935 66.1024L288.288 73.3964H253.277V66.9229L261.847 59.4465V11.8528L251.453 9.11757L255.1 1.82351H290.112V8.29698L281.45 15.8646V63.3671ZM333.329 66.1024L329.682 73.3964H308.621L284.003 37.4732L309.35 15.044L298.682 9.02639L302.329 1.73234H331.414V8.20581L303.424 32.9144L323.665 61.7259L333.329 66.1024ZM374.723 59.173C374.723 57.4103 374.024 55.7083 372.626 54.0672C371.228 52.426 369.495 50.9064 367.429 49.5084C365.362 48.1104 362.505 46.3476 358.858 44.2202C354.36 41.6065 350.744 39.3393 348.008 37.4185C345.273 35.5099 342.933 33.2791 340.988 30.7262C339.043 28.1733 338.07 25.3468 338.07 22.2469C338.07 19.2077 339.547 15.9375 342.501 12.4364C345.443 8.94737 349.042 5.99935 353.297 3.59232C357.551 1.19744 361.472 0 365.058 0C369.374 0 374.407 0.455878 380.157 1.36763C385.895 2.27939 390.101 3.25193 392.776 4.28525V25.6204H381.105C378.856 20.7577 376.321 16.9465 373.501 14.1869C370.669 11.4152 367.733 10.0293 364.694 10.0293C362.87 10.0293 361.442 10.6068 360.408 11.7617C359.375 12.9166 358.858 14.4058 358.858 16.2293C358.858 18.1743 359.576 20.01 361.01 21.7363C362.432 23.4747 364.226 25.0551 366.389 26.4774C368.541 27.9119 371.471 29.6929 375.179 31.8203C379.555 34.3124 383.099 36.4824 385.81 38.3302C388.509 40.1902 390.8 42.3663 392.684 44.8584C394.569 47.3506 395.511 50.1162 395.511 53.1554C395.511 56.1946 393.949 59.4587 390.825 62.9477C387.688 66.4488 383.871 69.3968 379.373 71.7917C374.875 74.1987 370.772 75.4023 367.064 75.4023C362.566 75.4023 357.217 74.9464 351.017 74.0346C344.817 73.1229 340.35 72.1503 337.614 71.117V49.7819H349.285C351.716 54.7054 354.543 58.5348 357.764 61.27C360.986 64.0053 364.238 65.3729 367.52 65.3729C369.708 65.3729 371.459 64.7651 372.772 63.5494C374.072 62.3338 374.723 60.8749 374.723 59.173Z" fill="white"/>
</g>
</g>
</g>
</g>
</g>
</g>
<defs>
<clipPath id="clip0_43_5">
<rect width="395.52" height="75.4023" fill="white"/>
</clipPath>
<clipPath id="clip1_43_5">
<rect width="395.52" height="75.4023" fill="white"/>
</clipPath>
<clipPath id="clip2_43_5">
<rect width="395.52" height="75.4023" fill="white"/>
</clipPath>
<clipPath id="clip3_43_5">
<rect width="395.52" height="75.4023" fill="white"/>
</clipPath>
<clipPath id="clip4_43_5">
<rect width="395.52" height="75.4023" fill="white"/>
</clipPath>
<clipPath id="clip5_43_5">
<rect width="395.52" height="75.4023" fill="white"/>
</clipPath>
</defs>
</svg>